<mxfile host="app.diagrams.net" agent="Mozilla/5.0 (Windows NT 10.0; Win64; x64) AppleWebKit/537.36 (KHTML, like Gecko) Chrome/138.0.0.0 YaBrowser/25.8.0.0 Safari/537.36" version="28.2.5">
  <diagram name="Страница — 1" id="QJjibzC4ca3kkXpaccP6">
    <mxGraphModel dx="-868" dy="509" grid="1" gridSize="10" guides="0" tooltips="1" connect="1" arrows="1" fold="1" page="1" pageScale="1" pageWidth="1654" pageHeight="1169" math="0" shadow="0">
      <root>
        <mxCell id="0" />
        <mxCell id="1" parent="0" />
        <mxCell id="joED3QO72Xdy8aQjHllT-22" style="rounded=0;orthogonalLoop=1;jettySize=auto;html=1;exitX=0;exitY=0.5;exitDx=0;exitDy=0;entryX=1;entryY=0.5;entryDx=0;entryDy=0;strokeColor=default;endArrow=none;endFill=0;" parent="1" source="joED3QO72Xdy8aQjHllT-2" target="joED3QO72Xdy8aQjHllT-11" edge="1">
          <mxGeometry relative="1" as="geometry" />
        </mxCell>
        <mxCell id="joED3QO72Xdy8aQjHllT-2" value="&lt;h3 style=&quot;box-sizing: border-box; margin-top: 24px; margin-bottom: 16px; font-size: 1.25em; line-height: 1.25; color: rgb(31, 35, 40);&quot; dir=&quot;auto&quot; class=&quot;heading-element&quot; tabindex=&quot;-1&quot; align=&quot;center&quot;&gt;&lt;span&gt;&lt;font style=&quot;&quot; face=&quot;Helvetica&quot;&gt;Торговая точка&lt;/font&gt;&lt;/span&gt;&lt;/h3&gt;" style="rounded=0;whiteSpace=wrap;html=1;fillColor=#ffe6cc;strokeColor=#d79b00;" parent="1" vertex="1">
          <mxGeometry x="2390" y="290" width="160" height="70" as="geometry" />
        </mxCell>
        <mxCell id="joED3QO72Xdy8aQjHllT-73" style="edgeStyle=orthogonalEdgeStyle;rounded=0;orthogonalLoop=1;jettySize=auto;html=1;exitX=1;exitY=0.5;exitDx=0;exitDy=0;strokeColor=#DDA15E;fontColor=#FEFAE0;fillColor=#BC6C25;" parent="1" source="joED3QO72Xdy8aQjHllT-3" target="joED3QO72Xdy8aQjHllT-72" edge="1">
          <mxGeometry relative="1" as="geometry" />
        </mxCell>
        <mxCell id="joED3QO72Xdy8aQjHllT-85" style="edgeStyle=orthogonalEdgeStyle;shape=connector;curved=1;rounded=0;orthogonalLoop=1;jettySize=auto;html=1;exitX=1;exitY=0.75;exitDx=0;exitDy=0;entryX=0;entryY=0;entryDx=0;entryDy=0;strokeColor=#330000;align=center;verticalAlign=middle;fontFamily=Helvetica;fontSize=11;fontColor=#FEFAE0;labelBackgroundColor=default;endArrow=none;endFill=0;fillColor=#BC6C25;" parent="1" source="joED3QO72Xdy8aQjHllT-3" target="joED3QO72Xdy8aQjHllT-48" edge="1">
          <mxGeometry relative="1" as="geometry" />
        </mxCell>
        <mxCell id="joED3QO72Xdy8aQjHllT-86" style="edgeStyle=orthogonalEdgeStyle;shape=connector;curved=1;rounded=0;orthogonalLoop=1;jettySize=auto;html=1;exitX=0.75;exitY=1;exitDx=0;exitDy=0;entryX=0;entryY=0.5;entryDx=0;entryDy=0;strokeColor=#330000;align=center;verticalAlign=middle;fontFamily=Helvetica;fontSize=11;fontColor=#FEFAE0;labelBackgroundColor=default;endArrow=none;endFill=0;fillColor=#BC6C25;" parent="1" source="joED3QO72Xdy8aQjHllT-3" target="joED3QO72Xdy8aQjHllT-55" edge="1">
          <mxGeometry relative="1" as="geometry" />
        </mxCell>
        <mxCell id="joED3QO72Xdy8aQjHllT-110" style="edgeStyle=orthogonalEdgeStyle;shape=connector;rounded=0;orthogonalLoop=1;jettySize=auto;html=1;exitX=0.5;exitY=0;exitDx=0;exitDy=0;entryX=0.5;entryY=1;entryDx=0;entryDy=0;strokeColor=#DDA15E;align=center;verticalAlign=middle;fontFamily=Helvetica;fontSize=11;fontColor=#FEFAE0;labelBackgroundColor=default;endArrow=classic;fillColor=#BC6C25;" parent="1" source="joED3QO72Xdy8aQjHllT-3" target="joED3QO72Xdy8aQjHllT-107" edge="1">
          <mxGeometry relative="1" as="geometry" />
        </mxCell>
        <mxCell id="joED3QO72Xdy8aQjHllT-3" value="&lt;h3 style=&quot;box-sizing: border-box; margin-top: 24px; margin-bottom: 16px; font-size: 1.25em; line-height: 1.25; color: rgb(31, 35, 40);&quot; dir=&quot;auto&quot; class=&quot;heading-element&quot; tabindex=&quot;-1&quot; align=&quot;center&quot;&gt;&lt;span&gt;&lt;font style=&quot;&quot; face=&quot;Helvetica&quot;&gt;Договор&lt;/font&gt;&lt;/span&gt;&lt;/h3&gt;" style="rounded=0;whiteSpace=wrap;html=1;fillColor=#ffe6cc;strokeColor=#d79b00;" parent="1" vertex="1">
          <mxGeometry x="2420" y="590" width="120" height="80" as="geometry" />
        </mxCell>
        <mxCell id="joED3QO72Xdy8aQjHllT-4" value="&lt;h3 style=&quot;box-sizing: border-box; margin-top: 24px; margin-bottom: 16px; font-size: 1.25em; line-height: 1.25; color: rgb(31, 35, 40);&quot; dir=&quot;auto&quot; class=&quot;heading-element&quot; tabindex=&quot;-1&quot; align=&quot;center&quot;&gt;&lt;span&gt;&lt;font style=&quot;&quot; face=&quot;Helvetica&quot;&gt;Платеж&lt;/font&gt;&lt;/span&gt;&lt;/h3&gt;" style="rounded=0;whiteSpace=wrap;html=1;fillColor=#ffe6cc;strokeColor=#d79b00;" parent="1" vertex="1">
          <mxGeometry x="2830" y="590" width="120" height="80" as="geometry" />
        </mxCell>
        <mxCell id="joED3QO72Xdy8aQjHllT-60" style="edgeStyle=orthogonalEdgeStyle;rounded=0;orthogonalLoop=1;jettySize=auto;html=1;exitX=1;exitY=0.5;exitDx=0;exitDy=0;entryX=0;entryY=0.5;entryDx=0;entryDy=0;strokeColor=#DDA15E;fontColor=#FEFAE0;fillColor=#BC6C25;" parent="1" source="joED3QO72Xdy8aQjHllT-5" target="joED3QO72Xdy8aQjHllT-57" edge="1">
          <mxGeometry relative="1" as="geometry" />
        </mxCell>
        <mxCell id="joED3QO72Xdy8aQjHllT-5" value="&lt;h3 style=&quot;box-sizing: border-box; margin-top: 24px; margin-bottom: 16px; font-size: 1.25em; line-height: 1.25; color: rgb(31, 35, 40);&quot; dir=&quot;auto&quot; class=&quot;heading-element&quot; tabindex=&quot;-1&quot; align=&quot;center&quot;&gt;&lt;span&gt;&lt;font style=&quot;&quot; face=&quot;Helvetica&quot;&gt;Клиент&lt;/font&gt;&lt;/span&gt;&lt;/h3&gt;" style="rounded=0;whiteSpace=wrap;html=1;fillColor=#ffe6cc;strokeColor=#d79b00;" parent="1" vertex="1">
          <mxGeometry x="1990" y="600" width="120" height="80" as="geometry" />
        </mxCell>
        <mxCell id="joED3QO72Xdy8aQjHllT-108" style="edgeStyle=orthogonalEdgeStyle;shape=connector;rounded=0;orthogonalLoop=1;jettySize=auto;html=1;exitX=0.5;exitY=0;exitDx=0;exitDy=0;entryX=0.5;entryY=1;entryDx=0;entryDy=0;strokeColor=#DDA15E;align=center;verticalAlign=middle;fontFamily=Helvetica;fontSize=11;fontColor=#FEFAE0;labelBackgroundColor=default;endArrow=classic;fillColor=#BC6C25;" parent="1" source="joED3QO72Xdy8aQjHllT-6" target="joED3QO72Xdy8aQjHllT-69" edge="1">
          <mxGeometry relative="1" as="geometry" />
        </mxCell>
        <mxCell id="joED3QO72Xdy8aQjHllT-6" value="&lt;h3 style=&quot;box-sizing: border-box; margin-top: 24px; margin-bottom: 16px; font-size: 1.25em; line-height: 1.25; color: rgb(31, 35, 40);&quot; dir=&quot;auto&quot; class=&quot;heading-element&quot; tabindex=&quot;-1&quot; align=&quot;center&quot;&gt;&lt;span&gt;&lt;font style=&quot;&quot; face=&quot;Helvetica&quot;&gt;Скидка&lt;/font&gt;&lt;/span&gt;&lt;/h3&gt;" style="rounded=0;whiteSpace=wrap;html=1;fillColor=#ffe6cc;strokeColor=#d79b00;" parent="1" vertex="1">
          <mxGeometry x="2420" y="880" width="120" height="80" as="geometry" />
        </mxCell>
        <mxCell id="joED3QO72Xdy8aQjHllT-24" style="edgeStyle=orthogonalEdgeStyle;rounded=0;orthogonalLoop=1;jettySize=auto;html=1;exitX=0.5;exitY=1;exitDx=0;exitDy=0;entryX=0.5;entryY=0;entryDx=0;entryDy=0;endArrow=none;endFill=0;" parent="1" source="joED3QO72Xdy8aQjHllT-7" target="joED3QO72Xdy8aQjHllT-2" edge="1">
          <mxGeometry relative="1" as="geometry" />
        </mxCell>
        <mxCell id="joED3QO72Xdy8aQjHllT-7" value="&lt;span&gt;&lt;font style=&quot;font-size: 15px;&quot;&gt;&lt;code style=&quot;box-sizing: border-box; font-variant-numeric: normal; font-variant-east-asian: normal; font-variant-alternates: normal; font-variant-position: normal; font-variant-emoji: normal; font-stretch: 100%; line-height: 22px; font-optical-sizing: auto; font-size-adjust: none; font-kerning: auto; font-feature-settings: normal; font-variation-settings: normal; font-family: Menlo, Monaco, &amp;quot;Cascadia Mono&amp;quot;, Consolas, &amp;quot;Ubuntu Mono&amp;quot;, &amp;quot;DejaVu Sans Mono&amp;quot;, &amp;quot;Liberation Mono&amp;quot;, &amp;quot;JetBrains Mono&amp;quot;, &amp;quot;Fira Code&amp;quot;, Cousine, &amp;quot;Roboto Mono&amp;quot;, &amp;quot;Courier New&amp;quot;, Courier, sans-serif, system-ui; border-radius: 6px; align-items: center; padding: 0px 5px; display: inline-flex; color: rgb(15, 17, 21); text-align: left;&quot;&gt;&lt;b&gt;Площадь&lt;/b&gt;&lt;/code&gt;&lt;/font&gt;&lt;/span&gt;&lt;div style=&quot;text-align: left;&quot;&gt;&lt;font face=&quot;quote-cjk-patch, Inter, system-ui, -apple-system, BlinkMacSystemFont, Segoe UI, Roboto, Oxygen, Ubuntu, Cantarell, Open Sans, Helvetica Neue, sans-serif&quot; color=&quot;#0f1115&quot;&gt;&lt;span style=&quot;font-size: 11px;&quot;&gt;DECIMAL(10,2)&lt;/span&gt;&lt;/font&gt;&lt;/div&gt;" style="ellipse;whiteSpace=wrap;html=1;fillColor=#e1d5e7;strokeColor=#9673a6;" parent="1" vertex="1">
          <mxGeometry x="2410" y="150" width="120" height="70" as="geometry" />
        </mxCell>
        <mxCell id="joED3QO72Xdy8aQjHllT-23" style="rounded=0;orthogonalLoop=1;jettySize=auto;html=1;exitX=0.5;exitY=1;exitDx=0;exitDy=0;entryX=0;entryY=0;entryDx=0;entryDy=0;endArrow=none;endFill=0;" parent="1" source="joED3QO72Xdy8aQjHllT-8" target="joED3QO72Xdy8aQjHllT-2" edge="1">
          <mxGeometry relative="1" as="geometry" />
        </mxCell>
        <mxCell id="joED3QO72Xdy8aQjHllT-8" value="&lt;span&gt;&lt;font style=&quot;font-size: 15px;&quot;&gt;&lt;code style=&quot;box-sizing: border-box; font-variant-numeric: normal; font-variant-east-asian: normal; font-variant-alternates: normal; font-variant-position: normal; font-variant-emoji: normal; font-stretch: 100%; line-height: 22px; font-optical-sizing: auto; font-size-adjust: none; font-kerning: auto; font-feature-settings: normal; font-variation-settings: normal; font-family: Menlo, Monaco, &amp;quot;Cascadia Mono&amp;quot;, Consolas, &amp;quot;Ubuntu Mono&amp;quot;, &amp;quot;DejaVu Sans Mono&amp;quot;, &amp;quot;Liberation Mono&amp;quot;, &amp;quot;JetBrains Mono&amp;quot;, &amp;quot;Fira Code&amp;quot;, Cousine, &amp;quot;Roboto Mono&amp;quot;, &amp;quot;Courier New&amp;quot;, Courier, sans-serif, system-ui; border-radius: 6px; align-items: center; padding: 0px 5px; display: inline-flex; color: rgb(15, 17, 21);&quot;&gt;&lt;b&gt;Наличие кондиционера&lt;/b&gt;&lt;/code&gt;&lt;/font&gt;&lt;/span&gt;&lt;div style=&quot;&quot;&gt;&lt;font face=&quot;quote-cjk-patch, Inter, system-ui, -apple-system, BlinkMacSystemFont, Segoe UI, Roboto, Oxygen, Ubuntu, Cantarell, Open Sans, Helvetica Neue, sans-serif&quot; color=&quot;#0f1115&quot;&gt;&lt;span style=&quot;font-size: 11px;&quot;&gt;BOOLEAN&lt;/span&gt;&lt;/font&gt;&lt;/div&gt;" style="ellipse;whiteSpace=wrap;html=1;fillColor=#e1d5e7;strokeColor=#9673a6;align=center;" parent="1" vertex="1">
          <mxGeometry x="2280" y="200" width="150" height="70" as="geometry" />
        </mxCell>
        <mxCell id="joED3QO72Xdy8aQjHllT-9" value="&lt;span&gt;&lt;font style=&quot;font-size: 15px;&quot;&gt;&lt;code style=&quot;box-sizing: border-box; font-variant-numeric: normal; font-variant-east-asian: normal; font-variant-alternates: normal; font-variant-position: normal; font-variant-emoji: normal; font-stretch: 100%; line-height: 22px; font-optical-sizing: auto; font-size-adjust: none; font-kerning: auto; font-feature-settings: normal; font-variation-settings: normal; font-family: Menlo, Monaco, &amp;quot;Cascadia Mono&amp;quot;, Consolas, &amp;quot;Ubuntu Mono&amp;quot;, &amp;quot;DejaVu Sans Mono&amp;quot;, &amp;quot;Liberation Mono&amp;quot;, &amp;quot;JetBrains Mono&amp;quot;, &amp;quot;Fira Code&amp;quot;, Cousine, &amp;quot;Roboto Mono&amp;quot;, &amp;quot;Courier New&amp;quot;, Courier, sans-serif, system-ui; border-radius: 6px; align-items: center; padding: 0px 5px; display: inline-flex; color: rgb(15, 17, 21);&quot;&gt;&lt;b&gt;Этаж&lt;/b&gt;&lt;/code&gt;&lt;/font&gt;&lt;/span&gt;&lt;div style=&quot;&quot;&gt;&lt;font face=&quot;quote-cjk-patch, Inter, system-ui, -apple-system, BlinkMacSystemFont, Segoe UI, Roboto, Oxygen, Ubuntu, Cantarell, Open Sans, Helvetica Neue, sans-serif&quot; color=&quot;#0f1115&quot;&gt;&lt;span style=&quot;font-size: 11px;&quot;&gt;INT&lt;/span&gt;&lt;/font&gt;&lt;/div&gt;" style="ellipse;whiteSpace=wrap;html=1;fillColor=#e1d5e7;strokeColor=#9673a6;align=center;" parent="1" vertex="1">
          <mxGeometry x="2550" y="170" width="100" height="50" as="geometry" />
        </mxCell>
        <mxCell id="joED3QO72Xdy8aQjHllT-26" style="edgeStyle=none;shape=connector;rounded=0;orthogonalLoop=1;jettySize=auto;html=1;exitX=0;exitY=0.5;exitDx=0;exitDy=0;entryX=1;entryY=0;entryDx=0;entryDy=0;strokeColor=default;align=center;verticalAlign=middle;fontFamily=Helvetica;fontSize=11;fontColor=default;labelBackgroundColor=default;endArrow=none;endFill=0;" parent="1" source="joED3QO72Xdy8aQjHllT-10" target="joED3QO72Xdy8aQjHllT-2" edge="1">
          <mxGeometry relative="1" as="geometry" />
        </mxCell>
        <mxCell id="joED3QO72Xdy8aQjHllT-10" value="&lt;span&gt;&lt;font style=&quot;font-size: 15px;&quot;&gt;&lt;code style=&quot;box-sizing: border-box; font-variant-numeric: normal; font-variant-east-asian: normal; font-variant-alternates: normal; font-variant-position: normal; font-variant-emoji: normal; font-stretch: 100%; line-height: 22px; font-optical-sizing: auto; font-size-adjust: none; font-kerning: auto; font-feature-settings: normal; font-variation-settings: normal; font-family: Menlo, Monaco, &amp;quot;Cascadia Mono&amp;quot;, Consolas, &amp;quot;Ubuntu Mono&amp;quot;, &amp;quot;DejaVu Sans Mono&amp;quot;, &amp;quot;Liberation Mono&amp;quot;, &amp;quot;JetBrains Mono&amp;quot;, &amp;quot;Fira Code&amp;quot;, Cousine, &amp;quot;Roboto Mono&amp;quot;, &amp;quot;Courier New&amp;quot;, Courier, sans-serif, system-ui; border-radius: 6px; align-items: center; padding: 0px 5px; display: inline-flex; color: rgb(15, 17, 21); text-align: left;&quot;&gt;&lt;b&gt;Адрес&lt;/b&gt;&lt;/code&gt;&lt;/font&gt;&lt;/span&gt;&lt;div&gt;&lt;span&gt;&lt;font style=&quot;font-size: 11px;&quot;&gt;&lt;span style=&quot;color: rgb(15, 17, 21); font-family: quote-cjk-patch, Inter, system-ui, -apple-system, BlinkMacSystemFont, &amp;quot;Segoe UI&amp;quot;, Roboto, Oxygen, Ubuntu, Cantarell, &amp;quot;Open Sans&amp;quot;, &amp;quot;Helvetica Neue&amp;quot;, sans-serif; text-align: left;&quot;&gt;VARCHAR(255)&lt;/span&gt;&lt;/font&gt;&lt;/span&gt;&lt;/div&gt;" style="ellipse;whiteSpace=wrap;html=1;fillColor=#e1d5e7;strokeColor=#9673a6;" parent="1" vertex="1">
          <mxGeometry x="2610" y="230" width="120" height="70" as="geometry" />
        </mxCell>
        <mxCell id="joED3QO72Xdy8aQjHllT-11" value="&lt;span&gt;&lt;font style=&quot;font-size: 15px;&quot;&gt;&lt;code style=&quot;box-sizing: border-box; font-variant-numeric: normal; font-variant-east-asian: normal; font-variant-alternates: normal; font-variant-position: normal; font-variant-emoji: normal; font-stretch: 100%; line-height: 22px; font-optical-sizing: auto; font-size-adjust: none; font-kerning: auto; font-feature-settings: normal; font-variation-settings: normal; font-family: Menlo, Monaco, &amp;quot;Cascadia Mono&amp;quot;, Consolas, &amp;quot;Ubuntu Mono&amp;quot;, &amp;quot;DejaVu Sans Mono&amp;quot;, &amp;quot;Liberation Mono&amp;quot;, &amp;quot;JetBrains Mono&amp;quot;, &amp;quot;Fira Code&amp;quot;, Cousine, &amp;quot;Roboto Mono&amp;quot;, &amp;quot;Courier New&amp;quot;, Courier, sans-serif, system-ui; border-radius: 6px; align-items: center; padding: 0px 5px; display: inline-flex; color: rgb(15, 17, 21);&quot;&gt;&lt;b&gt;Стоимость Аренды&lt;/b&gt;&lt;/code&gt;&lt;/font&gt;&lt;/span&gt;&lt;div style=&quot;&quot;&gt;&lt;font face=&quot;quote-cjk-patch, Inter, system-ui, -apple-system, BlinkMacSystemFont, Segoe UI, Roboto, Oxygen, Ubuntu, Cantarell, Open Sans, Helvetica Neue, sans-serif&quot; color=&quot;#0f1115&quot;&gt;&lt;span style=&quot;font-size: 11px;&quot;&gt;DECIMAL(10,2)&lt;/span&gt;&lt;/font&gt;&lt;/div&gt;" style="ellipse;whiteSpace=wrap;html=1;fillColor=#e1d5e7;strokeColor=#9673a6;align=center;" parent="1" vertex="1">
          <mxGeometry x="2180" y="260" width="150" height="80" as="geometry" />
        </mxCell>
        <mxCell id="joED3QO72Xdy8aQjHllT-27" style="edgeStyle=none;shape=connector;rounded=0;orthogonalLoop=1;jettySize=auto;html=1;exitX=0;exitY=0.5;exitDx=0;exitDy=0;entryX=1;entryY=0.75;entryDx=0;entryDy=0;strokeColor=default;align=center;verticalAlign=middle;fontFamily=Helvetica;fontSize=11;fontColor=default;labelBackgroundColor=default;endArrow=none;endFill=0;" parent="1" source="joED3QO72Xdy8aQjHllT-14" target="joED3QO72Xdy8aQjHllT-2" edge="1">
          <mxGeometry relative="1" as="geometry" />
        </mxCell>
        <mxCell id="joED3QO72Xdy8aQjHllT-14" value="&lt;b style=&quot;background-color: transparent; font-size: 15px; font-family: Menlo, Monaco, &amp;quot;Cascadia Mono&amp;quot;, Consolas, &amp;quot;Ubuntu Mono&amp;quot;, &amp;quot;DejaVu Sans Mono&amp;quot;, &amp;quot;Liberation Mono&amp;quot;, &amp;quot;JetBrains Mono&amp;quot;, &amp;quot;Fira Code&amp;quot;, Cousine, &amp;quot;Roboto Mono&amp;quot;, &amp;quot;Courier New&amp;quot;, Courier, sans-serif, system-ui; color: light-dark(rgb(15, 17, 21), rgb(222, 223, 227));&quot;&gt;Статус (свободна,занята)&lt;/b&gt;&lt;br&gt;&lt;span&gt;&lt;font style=&quot;&quot;&gt;&lt;code style=&quot;box-sizing: border-box; font-variant-numeric: normal; font-variant-east-asian: normal; font-variant-alternates: normal; font-variant-position: normal; font-variant-emoji: normal; font-stretch: 100%; line-height: 22px; font-optical-sizing: auto; font-size-adjust: none; font-kerning: auto; font-feature-settings: normal; font-variation-settings: normal; border-radius: 6px; align-items: center; padding: 0px 5px; display: inline-flex; color: rgb(15, 17, 21);&quot;&gt;&lt;span style=&quot;font-family: quote-cjk-patch, Inter, system-ui, -apple-system, BlinkMacSystemFont, &amp;quot;Segoe UI&amp;quot;, Roboto, Oxygen, Ubuntu, Cantarell, &amp;quot;Open Sans&amp;quot;, &amp;quot;Helvetica Neue&amp;quot;, sans-serif; font-size: 11px; font-weight: normal; color: light-dark(rgb(15, 17, 21), rgb(222, 223, 227)); background-color: transparent;&quot;&gt;BOOLEAN&lt;/span&gt;&lt;/code&gt;&lt;/font&gt;&lt;/span&gt;" style="ellipse;whiteSpace=wrap;html=1;fillColor=#e1d5e7;strokeColor=#9673a6;align=center;" parent="1" vertex="1">
          <mxGeometry x="2590" y="310" width="180" height="70" as="geometry" />
        </mxCell>
        <mxCell id="joED3QO72Xdy8aQjHllT-25" style="rounded=0;orthogonalLoop=1;jettySize=auto;html=1;exitX=0;exitY=1;exitDx=0;exitDy=0;strokeColor=default;endArrow=none;endFill=0;" parent="1" source="joED3QO72Xdy8aQjHllT-9" target="joED3QO72Xdy8aQjHllT-2" edge="1">
          <mxGeometry relative="1" as="geometry">
            <mxPoint x="2574.884660940673" y="212.67766952966372" as="sourcePoint" />
            <mxPoint x="2530" y="287.9" as="targetPoint" />
          </mxGeometry>
        </mxCell>
        <mxCell id="joED3QO72Xdy8aQjHllT-29" value="&lt;b&gt;ID&lt;/b&gt;&amp;nbsp;&lt;div&gt;(INT)&lt;/div&gt;" style="ellipse;whiteSpace=wrap;html=1;aspect=fixed;fontFamily=Helvetica;fontSize=11;labelBackgroundColor=none;fillColor=#d5e8d4;strokeColor=#82b366;" parent="1" vertex="1">
          <mxGeometry x="2250" y="350" width="50" height="50" as="geometry" />
        </mxCell>
        <mxCell id="joED3QO72Xdy8aQjHllT-30" style="edgeStyle=none;shape=connector;rounded=0;orthogonalLoop=1;jettySize=auto;html=1;exitX=0.905;exitY=0.258;exitDx=0;exitDy=0;entryX=0;entryY=1;entryDx=0;entryDy=0;strokeColor=default;align=center;verticalAlign=middle;fontFamily=Helvetica;fontSize=11;fontColor=default;labelBackgroundColor=default;endArrow=none;endFill=0;exitPerimeter=0;" parent="1" source="joED3QO72Xdy8aQjHllT-29" target="joED3QO72Xdy8aQjHllT-2" edge="1">
          <mxGeometry relative="1" as="geometry">
            <mxPoint x="2332.677669529663" y="393.1323304703367" as="sourcePoint" />
            <mxPoint x="2387.2799999999997" y="360" as="targetPoint" />
          </mxGeometry>
        </mxCell>
        <mxCell id="joED3QO72Xdy8aQjHllT-105" style="edgeStyle=none;shape=connector;rounded=0;orthogonalLoop=1;jettySize=auto;html=1;exitX=0;exitY=0;exitDx=0;exitDy=0;entryX=1;entryY=1;entryDx=0;entryDy=0;strokeColor=#330000;align=center;verticalAlign=middle;fontFamily=Helvetica;fontSize=11;fontColor=#FEFAE0;labelBackgroundColor=default;endArrow=none;endFill=0;fillColor=#BC6C25;" parent="1" source="joED3QO72Xdy8aQjHllT-32" target="joED3QO72Xdy8aQjHllT-4" edge="1">
          <mxGeometry relative="1" as="geometry" />
        </mxCell>
        <mxCell id="joED3QO72Xdy8aQjHllT-32" value="&lt;b&gt;&lt;font style=&quot;font-size: 15px;&quot;&gt;&lt;br&gt;&lt;span style=&quot;color: rgb(15, 17, 21); font-family: Menlo, Monaco, &amp;quot;Cascadia Mono&amp;quot;, Consolas, &amp;quot;Ubuntu Mono&amp;quot;, &amp;quot;DejaVu Sans Mono&amp;quot;, &amp;quot;Liberation Mono&amp;quot;, &amp;quot;JetBrains Mono&amp;quot;, &amp;quot;Fira Code&amp;quot;, Cousine, &amp;quot;Roboto Mono&amp;quot;, &amp;quot;Courier New&amp;quot;, Courier, sans-serif, system-ui; font-style: normal; font-variant-ligatures: normal; font-variant-caps: normal; letter-spacing: normal; orphans: 2; text-align: left; text-indent: 0px; text-transform: none; widows: 2; word-spacing: 0px; -webkit-text-stroke-width: 0px; white-space: normal; text-decoration-thickness: initial; text-decoration-style: initial; text-decoration-color: initial; float: none; display: inline !important;&quot;&gt;Сумма&lt;/span&gt;&lt;br&gt;&lt;/font&gt;&lt;/b&gt;&lt;div style=&quot;&quot;&gt;&lt;font face=&quot;Menlo, Monaco, Cascadia Mono, Consolas, Ubuntu Mono, DejaVu Sans Mono, Liberation Mono, JetBrains Mono, Fira Code, Cousine, Roboto Mono, Courier New, Courier, sans-serif, system-ui&quot; color=&quot;#0f1115&quot;&gt;&lt;span style=&quot;font-size: 15px;&quot;&gt;DECIMAL(12,2)&lt;/span&gt;&lt;/font&gt;&lt;/div&gt;" style="ellipse;whiteSpace=wrap;html=1;fontFamily=Helvetica;fontSize=11;labelBackgroundColor=none;fillColor=#e1d5e7;strokeColor=#9673a6;verticalAlign=top;" parent="1" vertex="1">
          <mxGeometry x="2970" y="670" width="150" height="90" as="geometry" />
        </mxCell>
        <mxCell id="joED3QO72Xdy8aQjHllT-87" style="edgeStyle=orthogonalEdgeStyle;shape=connector;curved=1;rounded=0;orthogonalLoop=1;jettySize=auto;html=1;exitX=0.5;exitY=0;exitDx=0;exitDy=0;entryX=0;entryY=0.5;entryDx=0;entryDy=0;strokeColor=#330000;align=center;verticalAlign=middle;fontFamily=Helvetica;fontSize=11;fontColor=#FEFAE0;labelBackgroundColor=default;endArrow=none;endFill=0;fillColor=#BC6C25;" parent="1" source="joED3QO72Xdy8aQjHllT-34" target="joED3QO72Xdy8aQjHllT-6" edge="1">
          <mxGeometry relative="1" as="geometry" />
        </mxCell>
        <mxCell id="joED3QO72Xdy8aQjHllT-34" value="&lt;b&gt;&lt;font style=&quot;font-size: 15px;&quot;&gt;&lt;br&gt;&lt;/font&gt;&lt;/b&gt;&lt;div style=&quot;&quot;&gt;&lt;font face=&quot;Menlo, Monaco, Cascadia Mono, Consolas, Ubuntu Mono, DejaVu Sans Mono, Liberation Mono, JetBrains Mono, Fira Code, Cousine, Roboto Mono, Courier New, Courier, sans-serif, system-ui&quot; color=&quot;#0f1115&quot;&gt;&lt;span style=&quot;font-size: 15px;&quot;&gt;&lt;b&gt;Название&lt;/b&gt;&lt;/span&gt;&lt;/font&gt;&lt;/div&gt;&lt;div style=&quot;&quot;&gt;&lt;font face=&quot;Menlo, Monaco, Cascadia Mono, Consolas, Ubuntu Mono, DejaVu Sans Mono, Liberation Mono, JetBrains Mono, Fira Code, Cousine, Roboto Mono, Courier New, Courier, sans-serif, system-ui&quot; color=&quot;#0f1115&quot;&gt;&lt;span style=&quot;font-size: 15px;&quot;&gt;&amp;nbsp;VARCHAR(255)&lt;/span&gt;&lt;font color=&quot;rgba(0, 0, 0, 0)&quot;&gt;&lt;span style=&quot;font-size: 15px;&quot;&gt;)&lt;/span&gt;&lt;/font&gt;&lt;/font&gt;&lt;/div&gt;" style="ellipse;whiteSpace=wrap;html=1;fontFamily=Helvetica;fontSize=11;labelBackgroundColor=none;fillColor=#e1d5e7;strokeColor=#9673a6;verticalAlign=top;" parent="1" vertex="1">
          <mxGeometry x="2280" y="970" width="160" height="90" as="geometry" />
        </mxCell>
        <mxCell id="joED3QO72Xdy8aQjHllT-36" value="&lt;b&gt;&lt;font style=&quot;font-size: 15px;&quot;&gt;&lt;br&gt;&lt;/font&gt;&lt;/b&gt;&lt;div style=&quot;&quot;&gt;&lt;font face=&quot;Menlo, Monaco, Cascadia Mono, Consolas, Ubuntu Mono, DejaVu Sans Mono, Liberation Mono, JetBrains Mono, Fira Code, Cousine, Roboto Mono, Courier New, Courier, sans-serif, system-ui&quot; color=&quot;#0f1115&quot;&gt;&lt;span style=&quot;font-size: 15px;&quot;&gt;&lt;b&gt;Статус (оплачено/не оплачено)&lt;/b&gt;&lt;/span&gt;&lt;/font&gt;&lt;/div&gt;&lt;div style=&quot;&quot;&gt;&lt;span style=&quot;background-color: transparent; font-size: 15px;&quot;&gt;&lt;font face=&quot;Menlo, Monaco, Cascadia Mono, Consolas, Ubuntu Mono, DejaVu Sans Mono, Liberation Mono, JetBrains Mono, Fira Code, Cousine, Roboto Mono, Courier New, Courier, sans-serif, system-ui&quot; color=&quot;#0f1115&quot;&gt;BOOLEAN&lt;/font&gt;&lt;/span&gt;&lt;/div&gt;" style="ellipse;whiteSpace=wrap;html=1;fontFamily=Helvetica;fontSize=11;labelBackgroundColor=none;fillColor=#e1d5e7;strokeColor=#9673a6;verticalAlign=top;" parent="1" vertex="1">
          <mxGeometry x="3000" y="580" width="180" height="90" as="geometry" />
        </mxCell>
        <mxCell id="joED3QO72Xdy8aQjHllT-37" value="&lt;b&gt;&lt;font style=&quot;font-size: 15px;&quot;&gt;&lt;br&gt;&lt;span style=&quot;color: rgb(15, 17, 21); font-family: Menlo, Monaco, &amp;quot;Cascadia Mono&amp;quot;, Consolas, &amp;quot;Ubuntu Mono&amp;quot;, &amp;quot;DejaVu Sans Mono&amp;quot;, &amp;quot;Liberation Mono&amp;quot;, &amp;quot;JetBrains Mono&amp;quot;, &amp;quot;Fira Code&amp;quot;, Cousine, &amp;quot;Roboto Mono&amp;quot;, &amp;quot;Courier New&amp;quot;, Courier, sans-serif, system-ui; font-style: normal; font-variant-ligatures: normal; font-variant-caps: normal; letter-spacing: normal; orphans: 2; text-align: left; text-indent: 0px; text-transform: none; widows: 2; word-spacing: 0px; -webkit-text-stroke-width: 0px; white-space: normal; text-decoration-thickness: initial; text-decoration-style: initial; text-decoration-color: initial; float: none; display: inline !important;&quot;&gt;Дата платежа&lt;/span&gt;&lt;br&gt;&lt;/font&gt;&lt;/b&gt;&lt;div style=&quot;&quot;&gt;&lt;font face=&quot;Menlo, Monaco, Cascadia Mono, Consolas, Ubuntu Mono, DejaVu Sans Mono, Liberation Mono, JetBrains Mono, Fira Code, Cousine, Roboto Mono, Courier New, Courier, sans-serif, system-ui&quot; color=&quot;#0f1115&quot;&gt;&lt;span style=&quot;font-size: 15px;&quot;&gt;DATE&lt;/span&gt;&lt;/font&gt;&lt;/div&gt;" style="ellipse;whiteSpace=wrap;html=1;fontFamily=Helvetica;fontSize=11;labelBackgroundColor=none;fillColor=#e1d5e7;strokeColor=#9673a6;verticalAlign=top;" parent="1" vertex="1">
          <mxGeometry x="2960" y="490" width="130" height="70" as="geometry" />
        </mxCell>
        <mxCell id="joED3QO72Xdy8aQjHllT-38" value="&lt;b&gt;&lt;font style=&quot;font-size: 15px;&quot;&gt;&lt;br&gt;&lt;/font&gt;&lt;/b&gt;&lt;div style=&quot;&quot;&gt;&lt;font face=&quot;Menlo, Monaco, Cascadia Mono, Consolas, Ubuntu Mono, DejaVu Sans Mono, Liberation Mono, JetBrains Mono, Fira Code, Cousine, Roboto Mono, Courier New, Courier, sans-serif, system-ui&quot; color=&quot;#0f1115&quot;&gt;&lt;span style=&quot;font-size: 15px;&quot;&gt;&lt;b&gt;Месяц&lt;/b&gt;&lt;/span&gt;&lt;/font&gt;&lt;/div&gt;&lt;div style=&quot;&quot;&gt;&lt;font face=&quot;Menlo, Monaco, Cascadia Mono, Consolas, Ubuntu Mono, DejaVu Sans Mono, Liberation Mono, JetBrains Mono, Fira Code, Cousine, Roboto Mono, Courier New, Courier, sans-serif, system-ui&quot; color=&quot;#0f1115&quot;&gt;&lt;span style=&quot;font-size: 15px;&quot;&gt;INT&lt;/span&gt;&lt;/font&gt;&lt;/div&gt;" style="ellipse;whiteSpace=wrap;html=1;fontFamily=Helvetica;fontSize=11;labelBackgroundColor=none;fillColor=#e1d5e7;strokeColor=#9673a6;verticalAlign=top;" parent="1" vertex="1">
          <mxGeometry x="2820" y="480" width="130" height="70" as="geometry" />
        </mxCell>
        <mxCell id="joED3QO72Xdy8aQjHllT-40" value="&lt;b&gt;&lt;font style=&quot;font-size: 15px;&quot;&gt;&lt;br&gt;&lt;/font&gt;&lt;/b&gt;&lt;div style=&quot;&quot;&gt;&lt;font face=&quot;Menlo, Monaco, Cascadia Mono, Consolas, Ubuntu Mono, DejaVu Sans Mono, Liberation Mono, JetBrains Mono, Fira Code, Cousine, Roboto Mono, Courier New, Courier, sans-serif, system-ui&quot; color=&quot;#0f1115&quot;&gt;&lt;span style=&quot;font-size: 15px;&quot;&gt;&lt;b&gt;Размер&lt;/b&gt;&lt;/span&gt;&lt;/font&gt;&lt;/div&gt;&lt;div style=&quot;&quot;&gt;&lt;font face=&quot;Menlo, Monaco, Cascadia Mono, Consolas, Ubuntu Mono, DejaVu Sans Mono, Liberation Mono, JetBrains Mono, Fira Code, Cousine, Roboto Mono, Courier New, Courier, sans-serif, system-ui&quot; color=&quot;#0f1115&quot;&gt;&lt;span style=&quot;font-size: 15px;&quot;&gt;INT&lt;/span&gt;&lt;/font&gt;&lt;/div&gt;" style="ellipse;whiteSpace=wrap;html=1;fontFamily=Helvetica;fontSize=11;labelBackgroundColor=none;fillColor=#e1d5e7;strokeColor=#9673a6;verticalAlign=top;" parent="1" vertex="1">
          <mxGeometry x="2450" y="990" width="130" height="70" as="geometry" />
        </mxCell>
        <mxCell id="joED3QO72Xdy8aQjHllT-42" value="&lt;b&gt;&lt;font style=&quot;font-size: 15px;&quot;&gt;&lt;br&gt;&lt;/font&gt;&lt;/b&gt;&lt;div style=&quot;&quot;&gt;&lt;span style=&quot;color: light-dark(rgb(15, 17, 21), rgb(222, 223, 227)); font-family: Menlo, Monaco, &amp;quot;Cascadia Mono&amp;quot;, Consolas, &amp;quot;Ubuntu Mono&amp;quot;, &amp;quot;DejaVu Sans Mono&amp;quot;, &amp;quot;Liberation Mono&amp;quot;, &amp;quot;JetBrains Mono&amp;quot;, &amp;quot;Fira Code&amp;quot;, Cousine, &amp;quot;Roboto Mono&amp;quot;, &amp;quot;Courier New&amp;quot;, Courier, sans-serif, system-ui; background-color: transparent; font-size: 15px;&quot;&gt;&lt;b&gt;ФИО контактного лица&lt;/b&gt;&lt;/span&gt;&lt;/div&gt;&lt;div style=&quot;&quot;&gt;&lt;span style=&quot;color: light-dark(rgb(15, 17, 21), rgb(222, 223, 227)); font-family: Menlo, Monaco, &amp;quot;Cascadia Mono&amp;quot;, Consolas, &amp;quot;Ubuntu Mono&amp;quot;, &amp;quot;DejaVu Sans Mono&amp;quot;, &amp;quot;Liberation Mono&amp;quot;, &amp;quot;JetBrains Mono&amp;quot;, &amp;quot;Fira Code&amp;quot;, Cousine, &amp;quot;Roboto Mono&amp;quot;, &amp;quot;Courier New&amp;quot;, Courier, sans-serif, system-ui; background-color: transparent; font-size: 15px;&quot;&gt; VARCHAR(255)&lt;/span&gt;&lt;/div&gt;" style="ellipse;whiteSpace=wrap;html=1;fontFamily=Helvetica;fontSize=11;labelBackgroundColor=none;fillColor=#e1d5e7;strokeColor=#9673a6;verticalAlign=top;" parent="1" vertex="1">
          <mxGeometry x="1700" y="580" width="190" height="80" as="geometry" />
        </mxCell>
        <mxCell id="joED3QO72Xdy8aQjHllT-99" style="edgeStyle=none;shape=connector;rounded=0;orthogonalLoop=1;jettySize=auto;html=1;exitX=0.5;exitY=1;exitDx=0;exitDy=0;entryX=0.75;entryY=0;entryDx=0;entryDy=0;strokeColor=#330000;align=center;verticalAlign=middle;fontFamily=Helvetica;fontSize=11;fontColor=#FEFAE0;labelBackgroundColor=default;endArrow=none;endFill=0;fillColor=#BC6C25;" parent="1" source="joED3QO72Xdy8aQjHllT-43" target="joED3QO72Xdy8aQjHllT-5" edge="1">
          <mxGeometry relative="1" as="geometry" />
        </mxCell>
        <mxCell id="joED3QO72Xdy8aQjHllT-43" value="&lt;b&gt;&lt;font style=&quot;font-size: 15px;&quot;&gt;&lt;br&gt;&lt;/font&gt;&lt;/b&gt;&lt;div style=&quot;&quot;&gt;&lt;span style=&quot;background-color: transparent; color: light-dark(rgb(15, 17, 21), rgb(222, 223, 227)); font-family: Menlo, Monaco, &amp;quot;Cascadia Mono&amp;quot;, Consolas, &amp;quot;Ubuntu Mono&amp;quot;, &amp;quot;DejaVu Sans Mono&amp;quot;, &amp;quot;Liberation Mono&amp;quot;, &amp;quot;JetBrains Mono&amp;quot;, &amp;quot;Fira Code&amp;quot;, Cousine, &amp;quot;Roboto Mono&amp;quot;, &amp;quot;Courier New&amp;quot;, Courier, sans-serif, system-ui; font-size: 15px;&quot;&gt;&lt;b&gt;Телефон&lt;/b&gt;&lt;/span&gt;&lt;/div&gt;&lt;div style=&quot;&quot;&gt;&lt;span style=&quot;background-color: transparent; color: light-dark(rgb(15, 17, 21), rgb(222, 223, 227)); font-family: Menlo, Monaco, &amp;quot;Cascadia Mono&amp;quot;, Consolas, &amp;quot;Ubuntu Mono&amp;quot;, &amp;quot;DejaVu Sans Mono&amp;quot;, &amp;quot;Liberation Mono&amp;quot;, &amp;quot;JetBrains Mono&amp;quot;, &amp;quot;Fira Code&amp;quot;, Cousine, &amp;quot;Roboto Mono&amp;quot;, &amp;quot;Courier New&amp;quot;, Courier, sans-serif, system-ui; font-size: 15px;&quot;&gt;VARCHAR(50)&lt;/span&gt;&lt;/div&gt;" style="ellipse;whiteSpace=wrap;html=1;fontFamily=Helvetica;fontSize=11;labelBackgroundColor=none;fillColor=#e1d5e7;strokeColor=#9673a6;verticalAlign=top;" parent="1" vertex="1">
          <mxGeometry x="1980" y="450" width="160" height="90" as="geometry" />
        </mxCell>
        <mxCell id="joED3QO72Xdy8aQjHllT-92" style="shape=connector;rounded=0;orthogonalLoop=1;jettySize=auto;html=1;exitX=1;exitY=1;exitDx=0;exitDy=0;entryX=0;entryY=0;entryDx=0;entryDy=0;strokeColor=#330000;align=center;verticalAlign=middle;fontFamily=Helvetica;fontSize=11;fontColor=#FEFAE0;labelBackgroundColor=default;endArrow=none;endFill=0;fillColor=#BC6C25;" parent="1" source="joED3QO72Xdy8aQjHllT-45" target="joED3QO72Xdy8aQjHllT-5" edge="1">
          <mxGeometry relative="1" as="geometry" />
        </mxCell>
        <mxCell id="joED3QO72Xdy8aQjHllT-45" value="&lt;b&gt;&lt;font style=&quot;font-size: 15px;&quot;&gt;&lt;br&gt;&lt;/font&gt;&lt;/b&gt;&lt;div style=&quot;&quot;&gt;&lt;span style=&quot;background-color: transparent; color: light-dark(rgb(15, 17, 21), rgb(222, 223, 227)); font-family: Menlo, Monaco, &amp;quot;Cascadia Mono&amp;quot;, Consolas, &amp;quot;Ubuntu Mono&amp;quot;, &amp;quot;DejaVu Sans Mono&amp;quot;, &amp;quot;Liberation Mono&amp;quot;, &amp;quot;JetBrains Mono&amp;quot;, &amp;quot;Fira Code&amp;quot;, Cousine, &amp;quot;Roboto Mono&amp;quot;, &amp;quot;Courier New&amp;quot;, Courier, sans-serif, system-ui; font-size: 15px;&quot;&gt;&lt;b&gt;Банковские реквизиты&lt;/b&gt;&lt;/span&gt;&lt;/div&gt;&lt;div style=&quot;&quot;&gt;&lt;font face=&quot;Menlo, Monaco, Cascadia Mono, Consolas, Ubuntu Mono, DejaVu Sans Mono, Liberation Mono, JetBrains Mono, Fira Code, Cousine, Roboto Mono, Courier New, Courier, sans-serif, system-ui&quot; color=&quot;#0f1115&quot;&gt;&lt;span style=&quot;font-size: 15px;&quot;&gt;TEXT&lt;/span&gt;&lt;/font&gt;&lt;/div&gt;" style="ellipse;whiteSpace=wrap;html=1;fontFamily=Helvetica;fontSize=11;labelBackgroundColor=none;fillColor=#e1d5e7;strokeColor=#9673a6;verticalAlign=top;" parent="1" vertex="1">
          <mxGeometry x="1720" y="490" width="210" height="80" as="geometry" />
        </mxCell>
        <mxCell id="joED3QO72Xdy8aQjHllT-95" style="edgeStyle=none;shape=connector;rounded=0;orthogonalLoop=1;jettySize=auto;html=1;exitX=1;exitY=0;exitDx=0;exitDy=0;entryX=0;entryY=0.75;entryDx=0;entryDy=0;strokeColor=#330000;align=center;verticalAlign=middle;fontFamily=Helvetica;fontSize=11;fontColor=#FEFAE0;labelBackgroundColor=default;endArrow=none;endFill=0;fillColor=#BC6C25;" parent="1" source="joED3QO72Xdy8aQjHllT-46" target="joED3QO72Xdy8aQjHllT-5" edge="1">
          <mxGeometry relative="1" as="geometry" />
        </mxCell>
        <mxCell id="joED3QO72Xdy8aQjHllT-46" value="&lt;b&gt;&lt;font style=&quot;font-size: 15px;&quot;&gt;&lt;br&gt;&lt;/font&gt;&lt;/b&gt;&lt;div style=&quot;&quot;&gt;&lt;span style=&quot;background-color: transparent; color: light-dark(rgb(15, 17, 21), rgb(222, 223, 227)); font-family: Menlo, Monaco, &amp;quot;Cascadia Mono&amp;quot;, Consolas, &amp;quot;Ubuntu Mono&amp;quot;, &amp;quot;DejaVu Sans Mono&amp;quot;, &amp;quot;Liberation Mono&amp;quot;, &amp;quot;JetBrains Mono&amp;quot;, &amp;quot;Fira Code&amp;quot;, Cousine, &amp;quot;Roboto Mono&amp;quot;, &amp;quot;Courier New&amp;quot;, Courier, sans-serif, system-ui; font-size: 15px;&quot;&gt;&lt;b&gt;Юридический адрес&lt;/b&gt;&lt;/span&gt;&lt;/div&gt;&lt;div style=&quot;&quot;&gt;&lt;span style=&quot;background-color: transparent; color: light-dark(rgb(15, 17, 21), rgb(222, 223, 227)); font-family: Menlo, Monaco, &amp;quot;Cascadia Mono&amp;quot;, Consolas, &amp;quot;Ubuntu Mono&amp;quot;, &amp;quot;DejaVu Sans Mono&amp;quot;, &amp;quot;Liberation Mono&amp;quot;, &amp;quot;JetBrains Mono&amp;quot;, &amp;quot;Fira Code&amp;quot;, Cousine, &amp;quot;Roboto Mono&amp;quot;, &amp;quot;Courier New&amp;quot;, Courier, sans-serif, system-ui; font-size: 15px;&quot;&gt;VARCHAR(255)&lt;/span&gt;&lt;/div&gt;" style="ellipse;whiteSpace=wrap;html=1;fontFamily=Helvetica;fontSize=11;labelBackgroundColor=none;fillColor=#e1d5e7;strokeColor=#9673a6;verticalAlign=top;" parent="1" vertex="1">
          <mxGeometry x="1740" y="670" width="190" height="90" as="geometry" />
        </mxCell>
        <mxCell id="joED3QO72Xdy8aQjHllT-101" style="edgeStyle=none;shape=connector;rounded=0;orthogonalLoop=1;jettySize=auto;html=1;strokeColor=#330000;align=center;verticalAlign=middle;fontFamily=Helvetica;fontSize=11;fontColor=#FEFAE0;labelBackgroundColor=default;endArrow=none;endFill=0;fillColor=#BC6C25;" parent="1" source="joED3QO72Xdy8aQjHllT-47" target="joED3QO72Xdy8aQjHllT-5" edge="1">
          <mxGeometry relative="1" as="geometry">
            <mxPoint x="2045" y="690" as="targetPoint" />
          </mxGeometry>
        </mxCell>
        <mxCell id="joED3QO72Xdy8aQjHllT-47" value="&lt;b&gt;&lt;font style=&quot;font-size: 15px;&quot;&gt;&lt;br&gt;&lt;/font&gt;&lt;/b&gt;&lt;div style=&quot;&quot;&gt;&lt;span style=&quot;background-color: transparent; color: light-dark(rgb(15, 17, 21), rgb(222, 223, 227)); font-family: Menlo, Monaco, &amp;quot;Cascadia Mono&amp;quot;, Consolas, &amp;quot;Ubuntu Mono&amp;quot;, &amp;quot;DejaVu Sans Mono&amp;quot;, &amp;quot;Liberation Mono&amp;quot;, &amp;quot;JetBrains Mono&amp;quot;, &amp;quot;Fira Code&amp;quot;, Cousine, &amp;quot;Roboto Mono&amp;quot;, &amp;quot;Courier New&amp;quot;, Courier, sans-serif, system-ui; font-size: 15px;&quot;&gt;&lt;b&gt;Название&lt;/b&gt;&lt;/span&gt;&lt;/div&gt;&lt;div style=&quot;&quot;&gt;&lt;span style=&quot;background-color: transparent; color: light-dark(rgb(15, 17, 21), rgb(222, 223, 227)); font-family: Menlo, Monaco, &amp;quot;Cascadia Mono&amp;quot;, Consolas, &amp;quot;Ubuntu Mono&amp;quot;, &amp;quot;DejaVu Sans Mono&amp;quot;, &amp;quot;Liberation Mono&amp;quot;, &amp;quot;JetBrains Mono&amp;quot;, &amp;quot;Fira Code&amp;quot;, Cousine, &amp;quot;Roboto Mono&amp;quot;, &amp;quot;Courier New&amp;quot;, Courier, sans-serif, system-ui; font-size: 15px;&quot;&gt;VARCHAR(255)&lt;/span&gt;&lt;/div&gt;" style="ellipse;whiteSpace=wrap;html=1;fontFamily=Helvetica;fontSize=11;labelBackgroundColor=none;fillColor=#e1d5e7;strokeColor=#9673a6;verticalAlign=top;" parent="1" vertex="1">
          <mxGeometry x="1970" y="710" width="150" height="80" as="geometry" />
        </mxCell>
        <mxCell id="joED3QO72Xdy8aQjHllT-48" value="&lt;b&gt;&lt;font style=&quot;font-size: 15px;&quot;&gt;&lt;br&gt;&lt;/font&gt;&lt;/b&gt;&lt;div style=&quot;&quot;&gt;&lt;span style=&quot;background-color: transparent; color: light-dark(rgb(15, 17, 21), rgb(222, 223, 227)); font-family: Menlo, Monaco, &amp;quot;Cascadia Mono&amp;quot;, Consolas, &amp;quot;Ubuntu Mono&amp;quot;, &amp;quot;DejaVu Sans Mono&amp;quot;, &amp;quot;Liberation Mono&amp;quot;, &amp;quot;JetBrains Mono&amp;quot;, &amp;quot;Fira Code&amp;quot;, Cousine, &amp;quot;Roboto Mono&amp;quot;, &amp;quot;Courier New&amp;quot;, Courier, sans-serif, system-ui; font-size: 15px;&quot;&gt;&lt;b&gt;Номер договора&lt;/b&gt;&lt;/span&gt;&lt;/div&gt;&lt;div style=&quot;&quot;&gt;&lt;span style=&quot;background-color: transparent; color: light-dark(rgb(15, 17, 21), rgb(222, 223, 227)); font-family: Menlo, Monaco, &amp;quot;Cascadia Mono&amp;quot;, Consolas, &amp;quot;Ubuntu Mono&amp;quot;, &amp;quot;DejaVu Sans Mono&amp;quot;, &amp;quot;Liberation Mono&amp;quot;, &amp;quot;JetBrains Mono&amp;quot;, &amp;quot;Fira Code&amp;quot;, Cousine, &amp;quot;Roboto Mono&amp;quot;, &amp;quot;Courier New&amp;quot;, Courier, sans-serif, system-ui;&quot;&gt;&lt;font style=&quot;font-size: 14px;&quot;&gt;VARCHAR(100)&lt;/font&gt;&lt;/span&gt;&lt;/div&gt;" style="ellipse;whiteSpace=wrap;html=1;fontFamily=Helvetica;fontSize=11;labelBackgroundColor=none;fillColor=#e1d5e7;strokeColor=#9673a6;verticalAlign=top;" parent="1" vertex="1">
          <mxGeometry x="2550" y="650" width="160" height="90" as="geometry" />
        </mxCell>
        <mxCell id="joED3QO72Xdy8aQjHllT-80" style="shape=connector;rounded=0;orthogonalLoop=1;jettySize=auto;html=1;exitX=0.5;exitY=1;exitDx=0;exitDy=0;entryX=0;entryY=0.25;entryDx=0;entryDy=0;strokeColor=#330000;align=center;verticalAlign=middle;fontFamily=Helvetica;fontSize=11;fontColor=#FEFAE0;labelBackgroundColor=default;endArrow=none;fillColor=#BC6C25;endFill=0;edgeStyle=orthogonalEdgeStyle;curved=1;" parent="1" source="joED3QO72Xdy8aQjHllT-49" target="joED3QO72Xdy8aQjHllT-3" edge="1">
          <mxGeometry relative="1" as="geometry">
            <Array as="points">
              <mxPoint x="2355" y="610" />
            </Array>
          </mxGeometry>
        </mxCell>
        <mxCell id="joED3QO72Xdy8aQjHllT-49" value="&lt;b&gt;&lt;font style=&quot;font-size: 15px;&quot;&gt;&lt;br&gt;&lt;span style=&quot;color: rgb(15, 17, 21); font-family: Menlo, Monaco, &amp;quot;Cascadia Mono&amp;quot;, Consolas, &amp;quot;Ubuntu Mono&amp;quot;, &amp;quot;DejaVu Sans Mono&amp;quot;, &amp;quot;Liberation Mono&amp;quot;, &amp;quot;JetBrains Mono&amp;quot;, &amp;quot;Fira Code&amp;quot;, Cousine, &amp;quot;Roboto Mono&amp;quot;, &amp;quot;Courier New&amp;quot;, Courier, sans-serif, system-ui; font-style: normal; font-variant-ligatures: normal; font-variant-caps: normal; letter-spacing: normal; orphans: 2; text-align: left; text-indent: 0px; text-transform: none; widows: 2; word-spacing: 0px; -webkit-text-stroke-width: 0px; white-space: normal; text-decoration-thickness: initial; text-decoration-style: initial; text-decoration-color: initial; float: none; display: inline !important;&quot;&gt;Дата заключения&lt;/span&gt;&lt;br&gt;&lt;/font&gt;&lt;/b&gt;&lt;div style=&quot;&quot;&gt;&lt;font face=&quot;Menlo, Monaco, Cascadia Mono, Consolas, Ubuntu Mono, DejaVu Sans Mono, Liberation Mono, JetBrains Mono, Fira Code, Cousine, Roboto Mono, Courier New, Courier, sans-serif, system-ui&quot; color=&quot;#0f1115&quot;&gt;&lt;span style=&quot;font-size: 15px;&quot;&gt;DATE&lt;/span&gt;&lt;/font&gt;&lt;/div&gt;" style="ellipse;whiteSpace=wrap;html=1;fontFamily=Helvetica;fontSize=11;labelBackgroundColor=none;fillColor=#e1d5e7;strokeColor=#9673a6;verticalAlign=top;" parent="1" vertex="1">
          <mxGeometry x="2280" y="530" width="150" height="70" as="geometry" />
        </mxCell>
        <mxCell id="joED3QO72Xdy8aQjHllT-82" style="edgeStyle=orthogonalEdgeStyle;shape=connector;curved=1;rounded=0;orthogonalLoop=1;jettySize=auto;html=1;exitX=0.5;exitY=1;exitDx=0;exitDy=0;entryX=1;entryY=0.25;entryDx=0;entryDy=0;strokeColor=#330000;align=center;verticalAlign=middle;fontFamily=Helvetica;fontSize=11;fontColor=#FEFAE0;labelBackgroundColor=default;endArrow=none;endFill=0;fillColor=#BC6C25;" parent="1" source="joED3QO72Xdy8aQjHllT-50" target="joED3QO72Xdy8aQjHllT-3" edge="1">
          <mxGeometry relative="1" as="geometry" />
        </mxCell>
        <mxCell id="joED3QO72Xdy8aQjHllT-50" value="&lt;b&gt;&lt;font style=&quot;font-size: 15px;&quot;&gt;&lt;br&gt;&lt;span style=&quot;color: rgb(15, 17, 21); font-family: Menlo, Monaco, &amp;quot;Cascadia Mono&amp;quot;, Consolas, &amp;quot;Ubuntu Mono&amp;quot;, &amp;quot;DejaVu Sans Mono&amp;quot;, &amp;quot;Liberation Mono&amp;quot;, &amp;quot;JetBrains Mono&amp;quot;, &amp;quot;Fira Code&amp;quot;, Cousine, &amp;quot;Roboto Mono&amp;quot;, &amp;quot;Courier New&amp;quot;, Courier, sans-serif, system-ui; font-style: normal; font-variant-ligatures: normal; font-variant-caps: normal; letter-spacing: normal; orphans: 2; text-align: left; text-indent: 0px; text-transform: none; widows: 2; word-spacing: 0px; -webkit-text-stroke-width: 0px; white-space: normal; text-decoration-thickness: initial; text-decoration-style: initial; text-decoration-color: initial; float: none; display: inline !important;&quot;&gt;Дата окончания&lt;/span&gt;&lt;br&gt;&lt;/font&gt;&lt;/b&gt;&lt;div style=&quot;&quot;&gt;&lt;font face=&quot;Menlo, Monaco, Cascadia Mono, Consolas, Ubuntu Mono, DejaVu Sans Mono, Liberation Mono, JetBrains Mono, Fira Code, Cousine, Roboto Mono, Courier New, Courier, sans-serif, system-ui&quot; color=&quot;#0f1115&quot;&gt;&lt;span style=&quot;font-size: 15px;&quot;&gt;DATE&lt;/span&gt;&lt;/font&gt;&lt;/div&gt;" style="ellipse;whiteSpace=wrap;html=1;fontFamily=Helvetica;fontSize=11;labelBackgroundColor=none;fillColor=#e1d5e7;strokeColor=#9673a6;verticalAlign=top;" parent="1" vertex="1">
          <mxGeometry x="2510" y="520" width="150" height="70" as="geometry" />
        </mxCell>
        <mxCell id="joED3QO72Xdy8aQjHllT-51" value="&lt;span&gt;&lt;font style=&quot;&quot;&gt;&lt;code style=&quot;box-sizing: border-box; font-variant-numeric: normal; font-variant-east-asian: normal; font-variant-alternates: normal; font-variant-position: normal; font-variant-emoji: normal; font-stretch: 100%; line-height: 22px; font-optical-sizing: auto; font-size-adjust: none; font-kerning: auto; font-feature-settings: normal; font-variation-settings: normal; border-radius: 6px; align-items: center; padding: 0px 5px; display: inline-flex; color: rgb(15, 17, 21);&quot;&gt;&lt;span style=&quot;color: light-dark(rgb(15, 17, 21), rgb(222, 223, 227)); background-color: transparent;&quot;&gt;&lt;font face=&quot;Menlo, Monaco, Cascadia Mono, Consolas, Ubuntu Mono, DejaVu Sans Mono, Liberation Mono, JetBrains Mono, Fira Code, Cousine, Roboto Mono, Courier New, Courier, sans-serif, system-ui&quot;&gt;&lt;span style=&quot;font-size: 15px;&quot;&gt;&lt;b&gt;Финальная стоимость&lt;br&gt;&lt;/b&gt;&lt;/span&gt;&lt;/font&gt;&lt;/span&gt;&lt;span style=&quot;color: light-dark(rgb(15, 17, 21), rgb(222, 223, 227)); background-color: transparent;&quot;&gt;&lt;font face=&quot;Menlo, Monaco, Cascadia Mono, Consolas, Ubuntu Mono, DejaVu Sans Mono, Liberation Mono, JetBrains Mono, Fira Code, Cousine, Roboto Mono, Courier New, Courier, sans-serif, system-ui&quot;&gt;&lt;span style=&quot;font-size: 15px;&quot;&gt;&lt;b&gt;&amp;nbsp;&lt;/b&gt;&lt;/span&gt;&lt;/font&gt;&lt;/span&gt;&lt;span style=&quot;color: light-dark(rgb(15, 17, 21), rgb(222, 223, 227)); background-color: transparent;&quot;&gt;&lt;font face=&quot;Menlo, Monaco, Cascadia Mono, Consolas, Ubuntu Mono, DejaVu Sans Mono, Liberation Mono, JetBrains Mono, Fira Code, Cousine, Roboto Mono, Courier New, Courier, sans-serif, system-ui&quot;&gt;&lt;span style=&quot;font-size: 15px;&quot;&gt;&lt;b&gt;&lt;/b&gt;&lt;/span&gt;&lt;/font&gt;&lt;/span&gt;&lt;/code&gt;&lt;/font&gt;&lt;/span&gt;&lt;span style=&quot;color: light-dark(rgb(15, 17, 21), rgb(222, 223, 227)); font-family: monospace; background-color: transparent;&quot;&gt;&lt;font face=&quot;Menlo, Monaco, Cascadia Mono, Consolas, Ubuntu Mono, DejaVu Sans Mono, Liberation Mono, JetBrains Mono, Fira Code, Cousine, Roboto Mono, Courier New, Courier, sans-serif, system-ui&quot;&gt;&lt;span style=&quot;font-size: 15px;&quot;&gt;&lt;b&gt;&lt;br&gt;&lt;/b&gt;&lt;/span&gt;&lt;/font&gt;&lt;/span&gt;&lt;span style=&quot;color: light-dark(rgb(15, 17, 21), rgb(222, 223, 227)); background-color: transparent; font-family: quote-cjk-patch, Inter, system-ui, -apple-system, BlinkMacSystemFont, &amp;quot;Segoe UI&amp;quot;, Roboto, Oxygen, Ubuntu, Cantarell, &amp;quot;Open Sans&amp;quot;, &amp;quot;Helvetica Neue&amp;quot;, sans-serif; font-size: 11px;&quot;&gt;DECIMAL(10,2)&lt;/span&gt;" style="ellipse;whiteSpace=wrap;html=1;fillColor=#e1d5e7;strokeColor=#9673a6;align=center;" parent="1" vertex="1">
          <mxGeometry x="2260" y="670" width="190" height="80" as="geometry" />
        </mxCell>
        <mxCell id="joED3QO72Xdy8aQjHllT-106" style="edgeStyle=none;shape=connector;rounded=0;orthogonalLoop=1;jettySize=auto;html=1;exitX=0.5;exitY=0;exitDx=0;exitDy=0;entryX=0.5;entryY=1;entryDx=0;entryDy=0;strokeColor=#330000;align=center;verticalAlign=middle;fontFamily=Helvetica;fontSize=11;fontColor=#FEFAE0;labelBackgroundColor=default;endArrow=none;endFill=0;fillColor=#BC6C25;" parent="1" source="joED3QO72Xdy8aQjHllT-53" target="joED3QO72Xdy8aQjHllT-4" edge="1">
          <mxGeometry relative="1" as="geometry" />
        </mxCell>
        <mxCell id="joED3QO72Xdy8aQjHllT-53" value="&lt;b&gt;ID&lt;/b&gt;&amp;nbsp;&lt;div&gt;(INT)&lt;/div&gt;" style="ellipse;whiteSpace=wrap;html=1;aspect=fixed;fontFamily=Helvetica;fontSize=11;labelBackgroundColor=none;fillColor=#d5e8d4;strokeColor=#82b366;" parent="1" vertex="1">
          <mxGeometry x="2880" y="720" width="50" height="50" as="geometry" />
        </mxCell>
        <mxCell id="joED3QO72Xdy8aQjHllT-93" style="edgeStyle=none;shape=connector;rounded=0;orthogonalLoop=1;jettySize=auto;html=1;exitX=0.5;exitY=1;exitDx=0;exitDy=0;entryX=0.25;entryY=0;entryDx=0;entryDy=0;strokeColor=#330000;align=center;verticalAlign=middle;fontFamily=Helvetica;fontSize=11;fontColor=#FEFAE0;labelBackgroundColor=default;endArrow=none;endFill=0;fillColor=#BC6C25;" parent="1" source="joED3QO72Xdy8aQjHllT-54" target="joED3QO72Xdy8aQjHllT-5" edge="1">
          <mxGeometry relative="1" as="geometry" />
        </mxCell>
        <mxCell id="joED3QO72Xdy8aQjHllT-54" value="&lt;b&gt;ID&lt;/b&gt;&amp;nbsp;&lt;div&gt;(INT)&lt;/div&gt;" style="ellipse;whiteSpace=wrap;html=1;aspect=fixed;fontFamily=Helvetica;fontSize=11;labelBackgroundColor=none;fillColor=#d5e8d4;strokeColor=#82b366;" parent="1" vertex="1">
          <mxGeometry x="1950" y="520" width="50" height="50" as="geometry" />
        </mxCell>
        <mxCell id="joED3QO72Xdy8aQjHllT-55" value="&lt;b&gt;ID&lt;/b&gt;&amp;nbsp;&lt;div&gt;(INT)&lt;/div&gt;" style="ellipse;whiteSpace=wrap;html=1;aspect=fixed;fontFamily=Helvetica;fontSize=11;labelBackgroundColor=none;fillColor=#d5e8d4;strokeColor=#82b366;" parent="1" vertex="1">
          <mxGeometry x="2560" y="750" width="50" height="50" as="geometry" />
        </mxCell>
        <mxCell id="joED3QO72Xdy8aQjHllT-89" style="edgeStyle=orthogonalEdgeStyle;shape=connector;curved=1;rounded=0;orthogonalLoop=1;jettySize=auto;html=1;exitX=1;exitY=0.5;exitDx=0;exitDy=0;entryX=0;entryY=0.25;entryDx=0;entryDy=0;strokeColor=#330000;align=center;verticalAlign=middle;fontFamily=Helvetica;fontSize=11;fontColor=#FEFAE0;labelBackgroundColor=default;endArrow=none;endFill=0;fillColor=#BC6C25;" parent="1" source="joED3QO72Xdy8aQjHllT-56" target="joED3QO72Xdy8aQjHllT-6" edge="1">
          <mxGeometry relative="1" as="geometry" />
        </mxCell>
        <mxCell id="joED3QO72Xdy8aQjHllT-56" value="&lt;b&gt;ID&lt;/b&gt;&amp;nbsp;&lt;div&gt;(INT)&lt;/div&gt;" style="ellipse;whiteSpace=wrap;html=1;aspect=fixed;fontFamily=Helvetica;fontSize=11;labelBackgroundColor=none;fillColor=#d5e8d4;strokeColor=#82b366;" parent="1" vertex="1">
          <mxGeometry x="2310" y="850" width="50" height="50" as="geometry" />
        </mxCell>
        <mxCell id="joED3QO72Xdy8aQjHllT-57" value="&lt;font style=&quot;font-size: 15px;&quot;&gt;заключает&lt;/font&gt;" style="rhombus;whiteSpace=wrap;html=1;strokeColor=#6c8ebf;fillColor=#dae8fc;" parent="1" vertex="1">
          <mxGeometry x="2170" y="600" width="160" height="80" as="geometry" />
        </mxCell>
        <mxCell id="joED3QO72Xdy8aQjHllT-61" style="edgeStyle=orthogonalEdgeStyle;rounded=0;orthogonalLoop=1;jettySize=auto;html=1;exitX=1;exitY=0.5;exitDx=0;exitDy=0;entryX=0;entryY=0.621;entryDx=0;entryDy=0;entryPerimeter=0;strokeColor=#DDA15E;fontColor=#FEFAE0;fillColor=#BC6C25;" parent="1" source="joED3QO72Xdy8aQjHllT-57" target="joED3QO72Xdy8aQjHllT-3" edge="1">
          <mxGeometry relative="1" as="geometry" />
        </mxCell>
        <mxCell id="joED3QO72Xdy8aQjHllT-109" style="edgeStyle=orthogonalEdgeStyle;shape=connector;rounded=0;orthogonalLoop=1;jettySize=auto;html=1;exitX=0.5;exitY=0;exitDx=0;exitDy=0;entryX=0.5;entryY=1;entryDx=0;entryDy=0;strokeColor=#DDA15E;align=center;verticalAlign=middle;fontFamily=Helvetica;fontSize=11;fontColor=#FEFAE0;labelBackgroundColor=default;endArrow=classic;fillColor=#BC6C25;" parent="1" source="joED3QO72Xdy8aQjHllT-69" target="joED3QO72Xdy8aQjHllT-3" edge="1">
          <mxGeometry relative="1" as="geometry" />
        </mxCell>
        <mxCell id="joED3QO72Xdy8aQjHllT-69" value="&lt;font style=&quot;font-size: 15px;&quot;&gt;возможна в&lt;/font&gt;" style="rhombus;whiteSpace=wrap;html=1;strokeColor=#6c8ebf;fillColor=#dae8fc;" parent="1" vertex="1">
          <mxGeometry x="2400" y="770" width="160" height="80" as="geometry" />
        </mxCell>
        <mxCell id="joED3QO72Xdy8aQjHllT-74" style="edgeStyle=orthogonalEdgeStyle;rounded=0;orthogonalLoop=1;jettySize=auto;html=1;exitX=1;exitY=0.5;exitDx=0;exitDy=0;strokeColor=#DDA15E;fontColor=#FEFAE0;fillColor=#BC6C25;" parent="1" source="joED3QO72Xdy8aQjHllT-72" target="joED3QO72Xdy8aQjHllT-4" edge="1">
          <mxGeometry relative="1" as="geometry" />
        </mxCell>
        <mxCell id="joED3QO72Xdy8aQjHllT-72" value="&lt;font style=&quot;font-size: 15px;&quot;&gt;определяет&lt;/font&gt;&amp;nbsp;" style="rhombus;whiteSpace=wrap;html=1;strokeColor=#6c8ebf;fillColor=#dae8fc;" parent="1" vertex="1">
          <mxGeometry x="2630" y="590" width="170" height="80" as="geometry" />
        </mxCell>
        <mxCell id="joED3QO72Xdy8aQjHllT-84" style="edgeStyle=orthogonalEdgeStyle;shape=connector;curved=1;rounded=0;orthogonalLoop=1;jettySize=auto;html=1;exitX=1;exitY=0;exitDx=0;exitDy=0;entryX=0.131;entryY=0.997;entryDx=0;entryDy=0;entryPerimeter=0;strokeColor=#330000;align=center;verticalAlign=middle;fontFamily=Helvetica;fontSize=11;fontColor=#FEFAE0;labelBackgroundColor=default;endArrow=none;endFill=0;fillColor=#BC6C25;" parent="1" source="joED3QO72Xdy8aQjHllT-51" target="joED3QO72Xdy8aQjHllT-3" edge="1">
          <mxGeometry relative="1" as="geometry" />
        </mxCell>
        <mxCell id="joED3QO72Xdy8aQjHllT-90" style="edgeStyle=orthogonalEdgeStyle;shape=connector;curved=1;rounded=0;orthogonalLoop=1;jettySize=auto;html=1;exitX=0.5;exitY=1;exitDx=0;exitDy=0;entryX=0.318;entryY=0.007;entryDx=0;entryDy=0;entryPerimeter=0;strokeColor=#330000;align=center;verticalAlign=middle;fontFamily=Helvetica;fontSize=11;fontColor=#FEFAE0;labelBackgroundColor=default;endArrow=none;endFill=0;fillColor=#BC6C25;" parent="1" source="joED3QO72Xdy8aQjHllT-6" target="joED3QO72Xdy8aQjHllT-40" edge="1">
          <mxGeometry relative="1" as="geometry" />
        </mxCell>
        <mxCell id="joED3QO72Xdy8aQjHllT-94" style="edgeStyle=none;shape=connector;rounded=0;orthogonalLoop=1;jettySize=auto;html=1;exitX=1;exitY=0.5;exitDx=0;exitDy=0;entryX=-0.019;entryY=0.351;entryDx=0;entryDy=0;entryPerimeter=0;strokeColor=#330000;align=center;verticalAlign=middle;fontFamily=Helvetica;fontSize=11;fontColor=#FEFAE0;labelBackgroundColor=default;endArrow=none;endFill=0;fillColor=#BC6C25;" parent="1" source="joED3QO72Xdy8aQjHllT-42" target="joED3QO72Xdy8aQjHllT-5" edge="1">
          <mxGeometry relative="1" as="geometry" />
        </mxCell>
        <mxCell id="joED3QO72Xdy8aQjHllT-102" style="edgeStyle=none;shape=connector;rounded=0;orthogonalLoop=1;jettySize=auto;html=1;exitX=0.5;exitY=1;exitDx=0;exitDy=0;entryX=0.428;entryY=0.028;entryDx=0;entryDy=0;entryPerimeter=0;strokeColor=#330000;align=center;verticalAlign=middle;fontFamily=Helvetica;fontSize=11;fontColor=#FEFAE0;labelBackgroundColor=default;endArrow=none;endFill=0;fillColor=#BC6C25;" parent="1" source="joED3QO72Xdy8aQjHllT-38" target="joED3QO72Xdy8aQjHllT-4" edge="1">
          <mxGeometry relative="1" as="geometry" />
        </mxCell>
        <mxCell id="joED3QO72Xdy8aQjHllT-103" style="edgeStyle=none;shape=connector;rounded=0;orthogonalLoop=1;jettySize=auto;html=1;exitX=0;exitY=1;exitDx=0;exitDy=0;entryX=0.854;entryY=0.001;entryDx=0;entryDy=0;entryPerimeter=0;strokeColor=#330000;align=center;verticalAlign=middle;fontFamily=Helvetica;fontSize=11;fontColor=#FEFAE0;labelBackgroundColor=default;endArrow=none;endFill=0;fillColor=#BC6C25;" parent="1" source="joED3QO72Xdy8aQjHllT-37" target="joED3QO72Xdy8aQjHllT-4" edge="1">
          <mxGeometry relative="1" as="geometry" />
        </mxCell>
        <mxCell id="joED3QO72Xdy8aQjHllT-104" style="edgeStyle=none;shape=connector;rounded=0;orthogonalLoop=1;jettySize=auto;html=1;exitX=0;exitY=0.5;exitDx=0;exitDy=0;entryX=1.01;entryY=0.428;entryDx=0;entryDy=0;entryPerimeter=0;strokeColor=#330000;align=center;verticalAlign=middle;fontFamily=Helvetica;fontSize=11;fontColor=#FEFAE0;labelBackgroundColor=default;endArrow=none;endFill=0;fillColor=#BC6C25;" parent="1" source="joED3QO72Xdy8aQjHllT-36" target="joED3QO72Xdy8aQjHllT-4" edge="1">
          <mxGeometry relative="1" as="geometry" />
        </mxCell>
        <mxCell id="joED3QO72Xdy8aQjHllT-107" value="&lt;font style=&quot;font-size: 15px;&quot;&gt;описывает условия аренды&lt;/font&gt;" style="rhombus;whiteSpace=wrap;html=1;strokeColor=#6c8ebf;fillColor=#dae8fc;" parent="1" vertex="1">
          <mxGeometry x="2340" y="410" width="280" height="80" as="geometry" />
        </mxCell>
        <mxCell id="joED3QO72Xdy8aQjHllT-112" style="edgeStyle=orthogonalEdgeStyle;shape=connector;rounded=0;orthogonalLoop=1;jettySize=auto;html=1;exitX=0.5;exitY=0;exitDx=0;exitDy=0;entryX=0.564;entryY=1.048;entryDx=0;entryDy=0;entryPerimeter=0;strokeColor=#DDA15E;align=center;verticalAlign=middle;fontFamily=Helvetica;fontSize=11;fontColor=#FEFAE0;labelBackgroundColor=default;endArrow=classic;fillColor=#BC6C25;" parent="1" source="joED3QO72Xdy8aQjHllT-107" target="joED3QO72Xdy8aQjHllT-2" edge="1">
          <mxGeometry relative="1" as="geometry" />
        </mxCell>
        <mxCell id="joED3QO72Xdy8aQjHllT-117" value="&lt;span&gt;1&lt;/span&gt;" style="text;html=1;align=center;verticalAlign=middle;resizable=0;points=[];autosize=1;strokeColor=none;fillColor=none;fontFamily=Helvetica;fontSize=11;fontColor=#330000;labelBackgroundColor=none;" parent="1" vertex="1">
          <mxGeometry x="2110" y="620" width="30" height="30" as="geometry" />
        </mxCell>
        <mxCell id="joED3QO72Xdy8aQjHllT-118" value="&lt;span&gt;1&lt;/span&gt;" style="text;html=1;align=center;verticalAlign=middle;resizable=0;points=[];autosize=1;strokeColor=none;fillColor=none;fontFamily=Helvetica;fontSize=11;fontColor=#330000;labelBackgroundColor=none;" parent="1" vertex="1">
          <mxGeometry x="2480" y="360" width="30" height="30" as="geometry" />
        </mxCell>
        <mxCell id="joED3QO72Xdy8aQjHllT-119" value="&lt;span&gt;1&lt;/span&gt;" style="text;html=1;align=center;verticalAlign=middle;resizable=0;points=[];autosize=1;strokeColor=none;fillColor=none;fontFamily=Helvetica;fontSize=11;fontColor=#330000;labelBackgroundColor=none;" parent="1" vertex="1">
          <mxGeometry x="2530" y="610" width="30" height="30" as="geometry" />
        </mxCell>
        <mxCell id="joED3QO72Xdy8aQjHllT-120" value="M" style="text;html=1;align=center;verticalAlign=middle;whiteSpace=wrap;rounded=0;fontFamily=Helvetica;fontSize=11;fontColor=#330000;labelBackgroundColor=none;" parent="1" vertex="1">
          <mxGeometry x="2363" y="616" width="60" height="30" as="geometry" />
        </mxCell>
        <mxCell id="joED3QO72Xdy8aQjHllT-121" value="M" style="text;html=1;align=center;verticalAlign=middle;whiteSpace=wrap;rounded=0;fontFamily=Helvetica;fontSize=11;fontColor=#330000;labelBackgroundColor=none;" parent="1" vertex="1">
          <mxGeometry x="2460" y="566" width="60" height="30" as="geometry" />
        </mxCell>
        <mxCell id="joED3QO72Xdy8aQjHllT-123" value="M" style="text;html=1;align=center;verticalAlign=middle;whiteSpace=wrap;rounded=0;fontFamily=Helvetica;fontSize=11;fontColor=#330000;labelBackgroundColor=none;" parent="1" vertex="1">
          <mxGeometry x="2783" y="607" width="60" height="30" as="geometry" />
        </mxCell>
        <mxCell id="joED3QO72Xdy8aQjHllT-124" value="M" style="text;html=1;align=center;verticalAlign=middle;whiteSpace=wrap;rounded=0;fontFamily=Helvetica;fontSize=11;fontColor=#330000;labelBackgroundColor=none;" parent="1" vertex="1">
          <mxGeometry x="2438" y="857" width="60" height="30" as="geometry" />
        </mxCell>
        <mxCell id="joED3QO72Xdy8aQjHllT-125" value="&lt;span&gt;N&lt;/span&gt;" style="text;html=1;align=center;verticalAlign=middle;whiteSpace=wrap;rounded=0;fontFamily=Helvetica;fontSize=11;fontColor=#330000;labelBackgroundColor=none;" parent="1" vertex="1">
          <mxGeometry x="2437" y="666" width="60" height="30" as="geometry" />
        </mxCell>
      </root>
    </mxGraphModel>
  </diagram>
</mxfile>
